<svg width="44" height="44" viewBox="0 0 44 44" fill="none" xmlns="http://www.w3.org/2000/svg">
<path d="M14.6666 6.875H12.8333C10.5551 6.875 8.70831 8.72183 8.70831 11V33C8.70831 35.2782 10.5551 37.125 12.8333 37.125H14.6666C16.9448 37.125 18.7916 35.2782 18.7916 33V11C18.7916 8.72183 16.9448 6.875 14.6666 6.875Z" stroke="white" stroke-width="2"/>
<path d="M31.1666 6.875H29.3333C27.0551 6.875 25.2083 8.72183 25.2083 11V33C25.2083 35.2782 27.0551 37.125 29.3333 37.125H31.1666C33.4448 37.125 35.2916 35.2782 35.2916 33V11C35.2916 8.72183 33.4448 6.875 31.1666 6.875Z" stroke="white" stroke-width="2"/>
</svg>
